
<svg
	width="100%"
	height="100%"
	viewBox="0 0 1000 827"
	fill="none"
	xmlns="http://www.w3.org/2000/svg"
>
	<path
		fill-rule="evenodd"
		clip-rule="evenodd"
		d="M363.654 0.61377C394.938 0.61377 423.846 17.3037 439.488 44.3965L477.991 111.086H857.938C901.371 111.086 936.58 146.295 936.58 189.727V220.057C972.783 227.53 1000 259.59 1000 298.007V743.617C1000 789.514 962.793 826.72 916.897 826.72H83.1035C37.2067 826.72 0 789.514 0 743.617V83.7172C2.53002e-05 37.8205 37.2067 0.61377 83.1035 0.61377H363.654ZM83.1035 32.9628C55.0726 32.9628 32.349 55.6863 32.349 83.7172V743.617C32.349 763.688 43.9998 781.038 60.9073 789.273C67.6123 792.539 75.1439 794.371 83.1035 794.371H916.897C944.927 794.371 967.651 771.648 967.651 743.617V298.007C967.651 271.914 946.498 250.761 920.405 250.761H571.835C540.551 250.761 511.644 234.071 496.002 206.978L411.473 60.571C401.609 43.4871 383.381 32.9628 363.654 32.9628H83.1035ZM524.017 190.804C533.88 207.888 552.109 218.412 571.835 218.412H904.231V189.727C904.231 164.161 883.505 143.435 857.938 143.435H496.668L524.017 190.804Z"
		fill="#11111"
	/>
	<path
		d="M83.1035 794.371H916.897C944.927 794.371 967.651 771.648 967.651 743.617V298.007C967.651 271.914 946.498 250.761 920.405 250.761H571.835C540.551 250.761 511.644 234.071 496.002 206.978L411.473 60.571H101.065C78.8864 60.571 60.9073 78.5501 60.9073 100.728V789.273C67.6123 792.539 75.1439 794.371 83.1035 794.371Z"
		fill="#FFBF4A"
	/>
	<path
		d="M83.1035 32.9628C55.0726 32.9628 32.349 55.6863 32.349 83.7172V743.617C32.349 763.688 43.9998 781.038 60.9073 789.273V100.728C60.9073 78.5501 78.8864 60.571 101.065 60.571H411.473C401.609 43.4871 383.381 32.9628 363.654 32.9628H83.1035Z"
		fill="#FFE27F"
	/>
	<path
		d="M524.017 190.804C533.88 207.888 552.109 218.412 571.835 218.412H904.231V189.727C904.231 164.161 883.505 143.435 857.938 143.435H496.668L524.017 190.804Z"
		fill="#FFBF4A"
	/>
</svg>


